<svg width="11" height="11" viewBox="0 0 11 11" fill="none" xmlns="http://www.w3.org/2000/svg">
<path d="M5.82524 3.73383L6.24374 1.22102C6.27816 1.01449 6.45752 0.862305 6.66767 0.862305C6.80355 0.862305 6.93037 0.925714 7.0119 1.03442L7.31807 1.44205L8.26196 1.44205C8.49205 1.44205 8.71307 1.53444 8.87612 1.69749L9.20223 2.02179L10.2168 2.02179C10.4577 2.02179 10.6516 2.21564 10.6516 2.45659L10.6516 2.8914C10.6516 3.69216 10.003 4.34075 9.20223 4.34075L8.62249 4.34075L8.33262 4.34075L7.94673 4.34075L7.85433 4.89331L5.82524 3.73383ZM7.75288 5.50204L7.75288 9.55842C7.75288 9.87908 7.4938 10.1382 7.17314 10.1382L6.59339 10.1382C6.27273 10.1382 6.01365 9.87908 6.01365 9.55842L6.01365 7.47135C5.57885 7.69419 5.08607 7.81919 4.5643 7.81919C4.04254 7.81919 3.54976 7.69419 3.11495 7.47135L3.11495 9.55842C3.11495 9.87908 2.85588 10.1382 2.53521 10.1382L1.95547 10.1382C1.6348 10.1382 1.37573 9.87908 1.37573 9.55842L1.37573 5.38791C0.853962 5.19043 0.44452 4.74838 0.303208 4.18313L0.234364 3.90232C0.156461 3.59252 0.344877 3.27729 0.656488 3.19938C0.968098 3.12148 1.28152 3.3099 1.35942 3.62151L1.43008 3.90232C1.49349 4.15958 1.72538 4.34075 1.9917 4.34075L2.53521 4.34075L2.82508 4.34075L5.72016 4.34075L7.75288 5.50204ZM8.62249 2.31166C8.62249 2.23478 8.59195 2.16105 8.53759 2.10669C8.48323 2.05233 8.4095 2.02179 8.33262 2.02179C8.25574 2.02179 8.18201 2.05233 8.12765 2.10669C8.07329 2.16105 8.04275 2.23478 8.04275 2.31166C8.04275 2.38854 8.07329 2.46226 8.12765 2.51663C8.18201 2.57099 8.25574 2.60153 8.33262 2.60153C8.4095 2.60153 8.48323 2.57099 8.53759 2.51663C8.59195 2.46226 8.62249 2.38854 8.62249 2.31166Z" fill="#059669"/>
</svg>
